<svg xmlns="http://www.w3.org/2000/svg" viewBox="0 0 47.9 28.8"><defs><style>.cls-1{fill:none;}.cls-2{fill:#fff;}</style></defs><g id="Layer_2" data-name="Layer 2"><g id="Layer_1-2" data-name="Layer 1"><rect class="cls-1" width="47.9" height="28.8"/><path class="cls-2" d="M34.55,8l-.88,2.14h1.77ZM4.1,8l-.87,2.14H5Zm20.22.3a1.43,1.43,0,0,0-.61-.09H22.13V9.41h1.56a1.23,1.23,0,0,0,.63-.11.55.55,0,0,0,.27-.51A.5.5,0,0,0,24.32,8.31Zm5.5,9.23a1.33,1.33,0,0,0-.62-.09H27.62v1.2h1.56a1.27,1.27,0,0,0,.64-.11.58.58,0,0,0,.26-.51A.52.52,0,0,0,29.82,17.54Zm-6.25-.1H21.9v1.37h1.65c.5,0,.8-.24.8-.71S24,17.44,23.57,17.44Zm23.69.81,0,0a.87.87,0,0,0,.41-.74V16.34a.89.89,0,0,0-.89-.89H44.18a2.87,2.87,0,0,0-1.84.59.89.89,0,0,0-.83-.59H38.94a2.94,2.94,0,0,0-1.69.46.87.87,0,0,0-.76-.46H32.21a.86.86,0,0,0-.78.49,1,1,0,0,0-.17-.13,3.9,3.9,0,0,0-2-.36h-3a.88.88,0,0,0-.78.49,3.57,3.57,0,0,0-2-.49h-4.1a.9.9,0,0,0-.65.28l-1,1.05-.93-1a.88.88,0,0,0-.66-.29H11.1a.88.88,0,0,0-.88.88V21.7a.88.88,0,0,0,.88.89h5.08a.86.86,0,0,0,.65-.29l1-1.06.93,1.05a.89.89,0,0,0,.66.3h2.5a.88.88,0,0,0,.88-.89v-.91h.72a3.79,3.79,0,0,0,1.95-.45V21.7a.88.88,0,0,0,.88.89h1.29a.89.89,0,0,0,.89-.89V20.63h.74c0,.1,0,.22,0,.29v.78a.88.88,0,0,0,.88.89h1.29a.87.87,0,0,0,.39-.1.87.87,0,0,0,.39.1h4.28a.87.87,0,0,0,.39-.1.83.83,0,0,0,.38.1h2.5a3.32,3.32,0,0,0,1.93-.54.89.89,0,0,0,.81.54H45c1.82,0,2.9-1,2.9-2.58A2.36,2.36,0,0,0,47.26,18.25ZM23.5,19.9H21.9v1.8H19.4l-1.58-1.78L16.18,21.7H11.1V16.33h5.16l1.58,1.76,1.63-1.76h4.1c1,0,2.16.29,2.16,1.77S24.62,19.9,23.5,19.9Zm7.09-.69a1.37,1.37,0,0,1,.63.45,1.61,1.61,0,0,1,.21,1V21.7H30.14V21c0-.32,0-.8-.21-1.05s-.47-.24-.94-.24H27.62v2H26.33V16.33h3a3.09,3.09,0,0,1,1.54.26,1.26,1.26,0,0,1,.66,1.19A1.51,1.51,0,0,1,30.59,19.21Zm5.9-1.77h-3v1h2.93v1.1H33.49v1.06h3V21.7H32.21V16.34h4.28Zm3.27,4.26h-2.5V20.54h2.49a.74.74,0,0,0,.52-.13.46.46,0,0,0,.15-.35.43.43,0,0,0-.15-.35.64.64,0,0,0-.46-.12c-1.2,0-2.7,0-2.7-1.66a1.6,1.6,0,0,1,1.83-1.6h2.57v1.14H39.16a.85.85,0,0,0-.51.1.45.45,0,0,0,.08.79,1.7,1.7,0,0,0,.5.06l.69,0a2.11,2.11,0,0,1,1.47.43A1.51,1.51,0,0,1,41.77,20C41.77,21.16,41.05,21.7,39.76,21.7Zm5.24,0H42.51V20.54H45a.77.77,0,0,0,.53-.13.5.5,0,0,0,.15-.35.43.43,0,0,0-.16-.35.64.64,0,0,0-.46-.12c-1.2,0-2.7,0-2.7-1.66,0-.78.49-1.6,1.84-1.6h2.57v1.14H44.4a.85.85,0,0,0-.51.1.42.42,0,0,0-.19.39.43.43,0,0,0,.27.4,1.75,1.75,0,0,0,.5.06l.69,0a2.11,2.11,0,0,1,1.47.43A1.51,1.51,0,0,1,47,20C47,21.16,46.29,21.7,45,21.7ZM43.24,6.21H41.92A.88.88,0,0,0,41,7.1v.55l-.61-1a.92.92,0,0,0-.76-.43h-2a.88.88,0,0,0-.88.89v.75l-.47-1.1a.88.88,0,0,0-.82-.54H33.62a.91.91,0,0,0-.53.18.87.87,0,0,0-.53-.18H31.32A3.58,3.58,0,0,0,28.91,7a.86.86,0,0,0-.85-.75H26.75a.88.88,0,0,0-.79.5,1.67,1.67,0,0,0-.16-.12,3.76,3.76,0,0,0-2-.38H20.85a.88.88,0,0,0-.45.14A.82.82,0,0,0,20,6.21H15.68a.89.89,0,0,0-.48.16.89.89,0,0,0-.48-.16H12.58a.88.88,0,0,0-.81.54L11,8.55l-.84-1.82a.89.89,0,0,0-.81-.52H7.27a.89.89,0,0,0-.89.89v.77L5.9,6.75a.88.88,0,0,0-.81-.54H3.18a.88.88,0,0,0-.81.54L.07,12.12A.85.85,0,0,0,.15,13a.88.88,0,0,0,.74.4H2.28a.89.89,0,0,0,.82-.55l.27-.65H4.85l.27.65a.89.89,0,0,0,.82.55H8.55a.88.88,0,0,0,.88-.89v0l.17.38a.89.89,0,0,0,.81.53h1.13a.87.87,0,0,0,.81-.53l.17-.38v0a.88.88,0,0,0,.89.88h1.31a.89.89,0,0,0,.48-.16.89.89,0,0,0,.48.16H20a.82.82,0,0,0,.44-.14.88.88,0,0,0,.45.14h1.28a.89.89,0,0,0,.89-.88V11.4h.74v1.06a.88.88,0,0,0,.88.88H26a.77.77,0,0,0,.39-.11.83.83,0,0,0,.4.11h1.31a.89.89,0,0,0,.86-.71,3.7,3.7,0,0,0,2.32.71h1.5a.89.89,0,0,0,.82-.55l.26-.65h1.48l.27.66a.9.9,0,0,0,.82.54H39a.88.88,0,0,0,.88-.89v-.84l.79,1.3a.88.88,0,0,0,.76.43h1.82a.88.88,0,0,0,.88-.89V7.1A.89.89,0,0,0,43.24,6.21ZM14.72,12.46H13.4V8.26l-1.86,4.2H10.41L8.55,8.26v4.2H5.94l-.49-1.19H2.78l-.5,1.19H.88L3.18,7.1h1.9l2.19,5.08V7.1H9.36L11,10.74,12.58,7.1h2.14ZM20,8.21H17v1h2.93v1.1H17v1.07h3v1.11H15.68V7.1H20ZM25.1,10a1.45,1.45,0,0,1,.63.46,1.52,1.52,0,0,1,.21,1v1.05H24.65v-.68a1.56,1.56,0,0,0-.2-1c-.18-.19-.47-.23-.93-.23H22.13v2H20.85V7.1H23.8a3,3,0,0,1,1.55.25A1.25,1.25,0,0,1,26,8.54,1.5,1.5,0,0,1,25.1,10Zm3,2.49H26.75V7.1h1.31Zm15.18,0H41.42L39,8.44v4H36.38l-.5-1.19H33.21l-.48,1.19h-1.5a2.72,2.72,0,0,1-1.86-.59,2.71,2.71,0,0,1-.69-2,2.88,2.88,0,0,1,.69-2.1,2.58,2.58,0,0,1,1.95-.62h1.24V8.25H31.34a1.24,1.24,0,0,0-1,.31A1.85,1.85,0,0,0,30,9.78,1.86,1.86,0,0,0,30.34,11a1.25,1.25,0,0,0,.89.28h.58L33.62,7.1h1.92l2.17,5.07V7.1h2l2.25,3.73V7.1h1.32ZM31.79,9.13l-.56,1.3-.25,0a1.44,1.44,0,0,1-.1-.63A1.37,1.37,0,0,1,31,9.2s.07-.07.37-.07ZM18.65,19l2,2.19V16.91Zm-3-1.58H12.38v1H15.2v1.1H12.38v1.06h3.15L17,19Z"/></g></g></svg>
