<svg xmlns="http://www.w3.org/2000/svg" viewBox="0 0 35.86 28.8"><defs><style>.cls-1{fill:none;}.cls-2{fill:#fff;}</style></defs><g id="Layer_2" data-name="Layer 2"><g id="Layer_1-2" data-name="Layer 1"><rect class="cls-1" width="35.86" height="28.8"/><path class="cls-2" d="M6.55,8.94a2.2,2.2,0,0,1-1.76.83,2.46,2.46,0,0,1,.63-1.83A2.63,2.63,0,0,1,7.17,7a2.65,2.65,0,0,1-.62,1.9m.61,1c-1-.05-1.81.56-2.27.56s-1.17-.53-1.95-.52A2.9,2.9,0,0,0,.5,11.43c-1,1.81-.27,4.48.74,5.95.5.73,1.1,1.53,1.88,1.5s1-.48,1.93-.48,1.17.48,2,.47,1.32-.73,1.82-1.46a6,6,0,0,0,.81-1.67,2.66,2.66,0,0,1-1.58-2.4,2.72,2.72,0,0,1,1.28-2.26A2.77,2.77,0,0,0,7.16,9.9m5.63-2V18.79h1.69V15.06h2.35a3.47,3.47,0,0,0,3.65-3.6,3.43,3.43,0,0,0-3.6-3.59ZM14.48,9.3h2a2,2,0,0,1,2.31,2.17,2,2,0,0,1-2.32,2.17H14.48Zm9.09,9.58a2.78,2.78,0,0,0,2.5-1.4h0v1.31h1.57V13.36c0-1.58-1.26-2.6-3.2-2.6s-3.13,1-3.18,2.45h1.52a1.49,1.49,0,0,1,1.61-1.11c1,0,1.62.48,1.62,1.37v.6l-2.12.13c-2,.12-3,.92-3,2.32A2.4,2.4,0,0,0,23.57,18.88Zm.46-1.3c-.9,0-1.48-.43-1.48-1.1s.55-1.09,1.61-1.15l1.89-.12v.62A1.84,1.84,0,0,1,24,17.58Zm5.74,4.18c1.66,0,2.43-.63,3.11-2.54l3-8.35H34.14l-2,6.45h0l-2-6.45H28.34l2.87,8-.16.48a1.34,1.34,0,0,1-1.42,1.14l-.5,0v1.31A4.4,4.4,0,0,0,29.77,21.76Z"/></g></g></svg>
