<svg xmlns="http://www.w3.org/2000/svg" viewBox="0 0 70.51 28.8"><defs><style>.cls-1{fill:none;}.cls-2{fill:#fff;}</style></defs><g id="Layer_2" data-name="Layer 2"><g id="Layer_1-2" data-name="Layer 1"><rect class="cls-1" width="70.51" height="28.8"/><path class="cls-2" d="M9,13.34c-.23.91-1.63.45-2.09.33l.4-1.61C7.78,12.17,9.25,12.38,9,13.34ZM6.72,14.49l-.44,1.77c.54.14,2.23.68,2.48-.32h0C9,14.89,7.27,14.62,6.72,14.49Zm7.78,1.69h0A7.36,7.36,0,1,1,9.14,7.26,7.36,7.36,0,0,1,14.5,16.18ZM9,11.49l.33-1.32L8.51,10l-.32,1.29c-.21-.06-.43-.11-.65-.15L7.87,9.8l-.81-.2-.33,1.33-.52-.12h0L5.1,10.53l-.22.86.59.14a.44.44,0,0,1,.38.47l-.38,1.52.08,0-.08,0-.53,2.12a.29.29,0,0,1-.37.19L4,15.69l-.4.92,1,.26.58.15-.33,1.34.8.2L6,17.24l.65.16-.33,1.32.8.21.34-1.34c1.38.26,2.41.15,2.85-1.09a1.42,1.42,0,0,0-.74-2,1.3,1.3,0,0,0,1-1.19h0C10.75,12.37,10,11.85,9,11.49Zm12.58,0a3,3,0,0,0-.8.1,4.35,4.35,0,0,0-.74.26L21.18,7l-2.88.45L15.07,21a5.61,5.61,0,0,0,1.15.41,11,11,0,0,0,1.14.23,9.28,9.28,0,0,0,1,.08h.59a6,6,0,0,0,4.36-1.84,6.18,6.18,0,0,0,1.3-2A6.37,6.37,0,0,0,25,15.5a6.08,6.08,0,0,0-.2-1.57,3.57,3.57,0,0,0-.64-1.26,3,3,0,0,0-1.08-.86,3.51,3.51,0,0,0-1.55-.32Zm-2.42,8h-.56l-.17,0-.2,0,1.23-5.1a1.68,1.68,0,0,1,.76-.39,3.47,3.47,0,0,1,.68-.1,1.17,1.17,0,0,1,1.1.51,2.82,2.82,0,0,1,.29,1.39,4.21,4.21,0,0,1-.9,2.6,3.13,3.13,0,0,1-1,.85,2.51,2.51,0,0,1-1.23.32ZM30.38,11.7H27.61l-2.33,9.8H28Zm-1-1.19a1.8,1.8,0,0,0,.73-.15,2.08,2.08,0,0,0,.61-.4,2.15,2.15,0,0,0,.42-.6,1.81,1.81,0,0,0,.15-.74,1.22,1.22,0,0,0-.46-1,1.71,1.71,0,0,0-1-.34,1.81,1.81,0,0,0-.74.15,2.08,2.08,0,0,0-.61.4,2.1,2.1,0,0,0-.42.59,1.85,1.85,0,0,0-.15.74,1.22,1.22,0,0,0,.46,1.05,1.72,1.72,0,0,0,1.05.35ZM32.8,9.26,31,17a10.25,10.25,0,0,0-.26,1.81A3.36,3.36,0,0,0,31,20.3a2.21,2.21,0,0,0,1,1,4.32,4.32,0,0,0,2,.38,7,7,0,0,0,1.55-.15,9.6,9.6,0,0,0,1.21-.35l-.21-2.12a6.56,6.56,0,0,1-.84.23,4.94,4.94,0,0,1-.87.08,1.84,1.84,0,0,1-.83-.15.86.86,0,0,1-.4-.42,1.57,1.57,0,0,1-.09-.64,3.5,3.5,0,0,1,.13-.8L34.44,14h3.07l.56-2.27H35l.71-2.89-2.89.45ZM38,17.59a5.68,5.68,0,0,0,.23,1.6,3.45,3.45,0,0,0,.76,1.33,3.84,3.84,0,0,0,1.32.91,5.15,5.15,0,0,0,2,.33,6.13,6.13,0,0,0,1.51-.16,9.77,9.77,0,0,0,1.15-.36L44.68,19a4.78,4.78,0,0,1-.9.28,5,5,0,0,1-1,.11,1.72,1.72,0,0,1-1.51-.58,2.69,2.69,0,0,1-.41-1.54,3.79,3.79,0,0,1,.81-2.55,2.71,2.71,0,0,1,2.19-1,3.17,3.17,0,0,1,1,.12c.26.08.52.17.77.27l1-2.17a5.83,5.83,0,0,0-1.2-.41,6.22,6.22,0,0,0-1.5-.16,5.92,5.92,0,0,0-2.43.48,5.71,5.71,0,0,0-1.86,1.32,5.88,5.88,0,0,0-1.17,2A7,7,0,0,0,38,17.59ZM50.2,21.76a4.83,4.83,0,0,0,2.39-.57,5.46,5.46,0,0,0,1.73-1.46,6.41,6.41,0,0,0,1-2,7.32,7.32,0,0,0,.35-2.24,5.26,5.26,0,0,0-.24-1.63,3.81,3.81,0,0,0-.71-1.28,3.15,3.15,0,0,0-1.21-.83,4.54,4.54,0,0,0-1.71-.3,4.86,4.86,0,0,0-2.35.56,5.71,5.71,0,0,0-1.73,1.47,6.37,6.37,0,0,0-1.07,2,7.28,7.28,0,0,0-.36,2.24,5,5,0,0,0,.24,1.63,3.67,3.67,0,0,0,.71,1.27,3.21,3.21,0,0,0,1.21.84,4.43,4.43,0,0,0,1.71.3Zm1.38-8a1.13,1.13,0,0,1,1.08.52,2.9,2.9,0,0,1,.3,1.45A4.87,4.87,0,0,1,52.8,17a4.24,4.24,0,0,1-.48,1.18,3.1,3.1,0,0,1-.78.9,1.77,1.77,0,0,1-1.08.35,1.13,1.13,0,0,1-1.08-.52,2.93,2.93,0,0,1-.3-1.45,4.87,4.87,0,0,1,.16-1.22A4.3,4.3,0,0,1,49.72,15a3.05,3.05,0,0,1,.78-.89,1.71,1.71,0,0,1,1.08-.35Zm9.49-2.09H58.29L56,21.5h2.76Zm-.27-1.34a1.91,1.91,0,0,0,.6-.4A1.88,1.88,0,0,0,62,8.62a1.23,1.23,0,0,0-.47-1,1.71,1.71,0,0,0-1-.34,1.85,1.85,0,0,0-.74.15,2,2,0,0,0-.6.4,1.77,1.77,0,0,0-.42.59,1.7,1.7,0,0,0-.16.74A1.23,1.23,0,0,0,59,10.16a1.69,1.69,0,0,0,1,.35A1.85,1.85,0,0,0,60.8,10.36Zm0,11.14h2.78l1.8-7.58a5.29,5.29,0,0,1,1.1-.12,1.29,1.29,0,0,1,.83.22,1,1,0,0,1,.35.56,2.14,2.14,0,0,1,0,.8c0,.3-.1.62-.17.94L66.26,21.5H69l1.27-5.29A4.3,4.3,0,0,0,70,12.74a3.33,3.33,0,0,0-3-1.27,13,13,0,0,0-1.33.07,9.07,9.07,0,0,0-1.06.17c-.32.07-.6.14-.86.22l-.7.22Z"/></g></g></svg>
