<svg xmlns="http://www.w3.org/2000/svg" viewBox="0 0 39.38 28.8"><defs><style>.cls-1{fill:none;}.cls-2{fill:#fff;}</style></defs><g id="Layer_2" data-name="Layer 2"><g id="Layer_1-2" data-name="Layer 1"><rect class="cls-1" width="39.38" height="28.8"/><path class="cls-2" d="M34.12,11a.29.29,0,1,0,.29.29A.29.29,0,0,0,34.12,11Zm.07.49-.12-.16v.16H34v-.4h.13q.15,0,.15.12a.12.12,0,0,1-.09.12l.14.16Zm-.1-.33h0v.11h0s.07,0,.07-.06S34.14,11.15,34.09,11.15Zm4.28-9.51H1a1,1,0,0,0-1,1v23.5a1,1,0,0,0,1,1H38.37a1,1,0,0,0,1-1V2.65A1,1,0,0,0,38.37,1.64Zm-4.24,9.28a.36.36,0,0,1,0,.71.35.35,0,0,1-.36-.35A.36.36,0,0,1,34.13,10.92Zm-3.39.1h1.34c1.05,0,1.64.5,1.64,1.36a1.24,1.24,0,0,1-1,1.32l1.46,2H33l-1.25-1.86h-.12v1.86h-.91Zm-3.16,0h2.56v.78H28.49v1h1.59v.78H28.49v1.25h1.65v.79H27.58Zm-3.87,0,1.23,3.12L26.19,11h1l-2,4.76h-.48l-2-4.76Zm-5.44,1.38a2.46,2.46,0,0,1,4.73,1,2.12,2.12,0,0,1-.05.5s0,.07,0,.1,0,.09,0,.13a2.47,2.47,0,0,1-4.82-.73A2.36,2.36,0,0,1,18.27,12.39Zm-1.6-1.48a2.33,2.33,0,0,1,1.11.29v1.06a1.51,1.51,0,0,0-1.13-.52,1.54,1.54,0,0,0-1.52,1.59,1.52,1.52,0,0,0,1.56,1.6,1.45,1.45,0,0,0,1.09-.51v1.06a2.43,2.43,0,0,1-1.13.27,2.4,2.4,0,0,1-2.45-2.41A2.44,2.44,0,0,1,16.67,10.91Zm-8.46,4.2a2.4,2.4,0,0,1-1.65.54H5.24V11H6.57a2.31,2.31,0,0,1,1.64,4.09Zm2.16.54h-.9V11h.9Zm2,.11a1.81,1.81,0,0,1-1.61-.88l.59-.56a1.06,1.06,0,0,0,1,.61.66.66,0,0,0,.71-.65.55.55,0,0,0-.28-.48,3.06,3.06,0,0,0-.62-.26c-.85-.31-1.14-.64-1.14-1.27a1.36,1.36,0,0,1,1.44-1.33,2,2,0,0,1,1.37.51l-.48.62a.92.92,0,0,0-.72-.37c-.39,0-.68.22-.68.51s.16.38.7.58c1,.38,1.34.71,1.34,1.45A1.49,1.49,0,0,1,12.32,15.76Zm26.36,10.7H14.08c15.91-2.74,24.6-8.87,24.6-8.87ZM7.62,12.18a1.67,1.67,0,0,0-1.23-.38H6.14v3.06h.25a1.72,1.72,0,0,0,1.23-.36,1.62,1.62,0,0,0,.5-1.17A1.55,1.55,0,0,0,7.62,12.18Zm24.3-.44h-.27v1.41h.26c.58,0,.88-.25.88-.72S32.49,11.74,31.92,11.74Z"/></g></g></svg>
