<svg xmlns="http://www.w3.org/2000/svg" viewBox="0 0 37.08 28.8"><defs><style>.cls-1{fill:none;}.cls-2{fill:#fff;}</style></defs><g id="Layer_2" data-name="Layer 2"><g id="Layer_1-2" data-name="Layer 1"><rect class="cls-1" width="37.08" height="28.8"/><path class="cls-2" d="M22.15,8.81a3.28,3.28,0,0,0-2.35-.92H16.17V18.55h1.37V14.23H19.8a3.27,3.27,0,0,0,2.35-.91,2.94,2.94,0,0,0,1-2.26A3,3,0,0,0,22.15,8.81Zm-1,3.56a1.8,1.8,0,0,1-1.36.55H17.54V9.2h2.29a1.8,1.8,0,0,1,1.36.57l0,0A1.82,1.82,0,0,1,21.19,12.37Z"/><path class="cls-2" d="M28.68,11.83A3.38,3.38,0,0,0,26.29,11a3.34,3.34,0,0,0-2.95,1.43l1.21.75a2.09,2.09,0,0,1,1.81-1,1.89,1.89,0,0,1,1.32.5A1.53,1.53,0,0,1,28.25,14v.31a4,4,0,0,0-2-.45,3.7,3.7,0,0,0-2.28.67,2.19,2.19,0,0,0-.86,1.81,2.3,2.3,0,0,0,.81,1.78,2.94,2.94,0,0,0,2,.72,2.62,2.62,0,0,0,2.26-1.25h.06v1h1.31v-4.5A2.86,2.86,0,0,0,28.68,11.83Zm-1.11,5.1a2.26,2.26,0,0,1-1.54.64A1.7,1.7,0,0,1,25,17.21a1.07,1.07,0,0,1-.45-.9,1.21,1.21,0,0,1,.56-1,2.36,2.36,0,0,1,1.39-.4,2.77,2.77,0,0,1,1.78.51A2,2,0,0,1,27.57,16.93Z"/><polygon class="cls-2" points="35.59 11.26 33.48 16.49 33.45 16.49 31.27 11.26 29.78 11.26 32.79 18.09 31.09 21.76 32.51 21.76 37.08 11.26 35.59 11.26"/><path class="cls-2" d="M6.12,12.06v2.35H9.43a2.82,2.82,0,0,1-1.22,1.86h0a3.7,3.7,0,0,1-2.09.58,3.66,3.66,0,0,1-3.43-2.53,3.61,3.61,0,0,1,0-2.34A3.66,3.66,0,0,1,6.12,9.46a3.34,3.34,0,0,1,2.35.92l1.75-1.75A5.88,5.88,0,0,0,6.12,7a6.12,6.12,0,1,0,0,12.24,5.86,5.86,0,0,0,4.06-1.47h0A6,6,0,0,0,12,13.3a7.32,7.32,0,0,0-.1-1.24Z"/></g></g></svg>
