<svg xmlns="http://www.w3.org/2000/svg" viewBox="0 0 35.4 28.8"><defs><style>.cls-1{fill:none;}.cls-2{fill:#fff;}</style></defs><g id="Layer_2" data-name="Layer 2"><g id="Layer_1-2" data-name="Layer 1"><rect class="cls-1" width="35.4" height="28.8"/><path class="cls-2" d="M4.85,1.64h6.06V22.48a4.94,4.94,0,0,1-4.69,4.68H0V17.45l.06,0v0a5.87,5.87,0,0,0,3.46,1.09c2.28,0,5.39-1.27,5.39-3.71v-4.4l.05.36v-.36H5.08v4.46a2.33,2.33,0,0,1-2.45,2.28A2.63,2.63,0,0,1,0,15.29V6.49A4.58,4.58,0,0,1,4.85,1.64ZM26.44,17.06h2.68a1.32,1.32,0,0,0,0-2.63H26.44Zm3-15.42a4.54,4.54,0,0,0-4.85,4.79v0l-.06,0v3.94h7.2a1.89,1.89,0,0,1,0,3.77,1.93,1.93,0,0,1,2,1.83,1.89,1.89,0,0,1-2,1.82h-7.2v9.31h6.17a4.93,4.93,0,0,0,4.68-4.68V1.64Zm.92,10.9a1.37,1.37,0,0,0-1.32-1.31H26.44V13.8h2.68A1.27,1.27,0,0,0,30.38,12.54ZM12.22,6.43v5a3.88,3.88,0,0,1,2.45-1h6.51v1.31a20.39,20.39,0,0,0-3.76-.51,2.93,2.93,0,0,0-2.92,2.91v.06a2.93,2.93,0,0,0,2.92,2.91,19.22,19.22,0,0,0,3.76-.45v1.19H14.67a3.49,3.49,0,0,1-2.45-1V27.16h6.17a4.93,4.93,0,0,0,4.68-4.68V1.64h-6A4.54,4.54,0,0,0,12.22,6.43Z"/></g></g></svg>
