<svg xmlns="http://www.w3.org/2000/svg" viewBox="0 0 39.38 28.8"><defs><style>.cls-1{fill:none;}.cls-2{fill:#fff;}</style></defs><g id="Layer_2" data-name="Layer 2"><g id="Layer_1-2" data-name="Layer 1"><rect class="cls-1" width="39.38" height="28.8"/><path class="cls-2" d="M10.5,12.71a3.86,3.86,0,0,0-1.31.23L9,13.87a3.34,3.34,0,0,1,1.17-.19c.4,0,.69.05.69.37a.79.79,0,0,1,0,.27l-.47,0c-.93,0-1.9.39-1.9,1.59a1,1,0,0,0,1,1.16,1.42,1.42,0,0,0,1.1-.49l0,.41h1L12,14A1.27,1.27,0,0,0,10.5,12.71ZM10,16.15a.39.39,0,0,1-.42-.41c0-.29.16-.65,1-.65a.83.83,0,0,1,.24,0C10.75,15.3,10.61,16.15,10,16.15Zm4-2.45c.15,0,.73.05.73.05l.14-.95a4.73,4.73,0,0,0-1-.09c-.8,0-1.61.32-1.61,1.41s1.35,1.11,1.35,1.63c0,.34-.38.37-.67.37a3.62,3.62,0,0,1-.95-.16l-.15.94A3.47,3.47,0,0,0,13,17c.24,0,1.63.06,1.63-1.37s-1.28-1.07-1.28-1.61C13.33,13.78,13.53,13.7,13.92,13.7Zm2.26.12h.57l.14-1h-.54l.11-.63H15.39s-.64,3.54-.64,4a.8.8,0,0,0,.86.91,2.6,2.6,0,0,0,.8-.14l.14-.92c-.07,0-.18,0-.28,0-.37,0-.41-.2-.39-.35ZM20.69,8H18.77c-.26.35-.5.72-.72,1.08h3.43A9.34,9.34,0,0,0,20.69,8Zm15,12.17-.06-.07s0,0,0,0a.11.11,0,0,0,.08,0,.14.14,0,0,0,0-.07.11.11,0,0,0,0-.05.09.09,0,0,0,0,0h-.21v.35h.06V20h.08l.06.09,0,.05h.07ZM35.55,20h-.07v-.1h.12s0,0,0,0a0,0,0,0,1,0,0s0,0,0,0Zm-13.49-9.9H17.45c-.29.56-.49,1-.54,1.08H22.5C22.37,10.8,22.22,10.44,22.06,10.09ZM7.18,11.85,6.12,15l-.06-3.14H4.49L3.63,17h1l.65-3.86L5.42,17h.74l1.38-3.86L6.93,17H8l.85-5.12Zm20.76.86a3.77,3.77,0,0,0-1.3.23l-.16.93a3.41,3.41,0,0,1,1.17-.19c.4,0,.7.05.7.37a.61.61,0,0,1,0,.27l-.46,0c-.93,0-1.91.39-1.91,1.59a1,1,0,0,0,1,1.16,1.38,1.38,0,0,0,1.1-.49l0,.41H29l.43-3A1.27,1.27,0,0,0,27.94,12.71Zm-.53,3.44a.39.39,0,0,1-.42-.41c0-.29.16-.65,1-.65a.72.72,0,0,1,.23,0C28.19,15.3,28.06,16.15,27.41,16.15Zm8.3.35a.34.34,0,0,0-.12-.12.32.32,0,0,0-.16,0,.29.29,0,0,0-.16,0,.3.3,0,0,0-.13.12.33.33,0,0,0,0,.17.32.32,0,0,0,0,.16.34.34,0,0,0,.12.12.35.35,0,0,0,.17,0,.32.32,0,0,0,.16,0,.34.34,0,0,0,.12-.12.32.32,0,0,0,0-.16A.33.33,0,0,0,35.71,16.5Zm-.05.3a.19.19,0,0,1-.1.1.2.2,0,0,1-.13,0,.25.25,0,0,1-.14,0,.25.25,0,0,1-.13-.24.31.31,0,0,1,0-.13.32.32,0,0,1,.1-.1.25.25,0,0,1,.14,0,.22.22,0,0,1,.13,0,.17.17,0,0,1,.1.1.22.22,0,0,1,0,.13A.23.23,0,0,1,35.66,16.8Zm-.12,0a.25.25,0,0,0,0-.07l0,0a.09.09,0,0,0,.07,0,.11.11,0,0,0,0-.07.08.08,0,0,0,0-.05s0,0,0,0h-.22v.35h.06V16.7h.08s0,0,.06.08l0,.06h.07Zm-.13-.13h-.07v-.11h.15s0,0,0,0a.05.05,0,0,1,0,0ZM31.6,12.76c-.48,0-.84.66-.84.66l.09-.61h-1L29.18,17h1.1c.32-1.78.38-3.23,1.12-3a4.19,4.19,0,0,1,.4-1.25Zm2.77-.9-.23,1.44a1.41,1.41,0,0,0-1-.56c-1,0-1.81,1.18-1.81,2.55,0,.88.44,1.75,1.34,1.75a1.35,1.35,0,0,0,1-.45l-.05.38h1.05l.82-5.12ZM33,16c-.39,0-.57-.32-.57-.84,0-.83.37-1.38.85-1.38s.58.27.58.89S33.59,16,33,16ZM38.37,1.64H1a1,1,0,0,0-1,1v23.5a1,1,0,0,0,1,1H38.37a1,1,0,0,0,1-1V2.65A1,1,0,0,0,38.37,1.64ZM35.85,20.17a.23.23,0,0,1-.12.12.33.33,0,0,1-.16.05.34.34,0,0,1-.17-.05.23.23,0,0,1-.12-.12.34.34,0,0,1,0-.32.23.23,0,0,1,.12-.12.3.3,0,0,1,.33,0,.23.23,0,0,1,.12.12.34.34,0,0,1,0,.32Zm.73-5.77a10.11,10.11,0,0,1-16.89,7.5A10.11,10.11,0,1,1,12.85,4.29h.06A10.07,10.07,0,0,1,19.69,6.9a10.11,10.11,0,0,1,16.89,7.5ZM18.66,20.79a9.81,9.81,0,0,0,1,1.11l0,0h0a9.5,9.5,0,0,0,1-1.08ZM20,15.24a7.6,7.6,0,0,0,.14-1,1.44,1.44,0,0,0-1.53-1.57c-1.08,0-1.88,1.17-1.88,2.48a1.69,1.69,0,0,0,1.85,1.89,2.72,2.72,0,0,0,1.14-.18l.19-1a3.29,3.29,0,0,1-1.14.27c-1.16,0-.95-.87-.95-.87Zm-1.39-1.59c.61,0,.5.69.5.74h-1.2C17.94,14.32,18.06,13.65,18.64,13.65Zm6.44-.82a1.91,1.91,0,0,1,1,.31L26.24,12A3.89,3.89,0,0,0,25,11.74c-1.24,0-2.45,1.07-2.45,3.1,0,1.34.65,2.23,1.94,2.23a4.92,4.92,0,0,0,.94-.15l.19-1.18a2.57,2.57,0,0,1-.89.27,1.07,1.07,0,0,1-1.07-1.21C23.69,13.53,24.35,12.83,25.08,12.83Zm-7.77,5.84a9.45,9.45,0,0,0,.59,1.08h3.59a11.3,11.3,0,0,0,.59-1.08Zm5.25-5.91c-.48,0-.84.66-.84.66l.1-.61h-1L20.14,17h1.11c.31-1.78.37-3.22,1.12-3a4.19,4.19,0,0,1,.4-1.25Z"/></g></g></svg>
