<svg xmlns="http://www.w3.org/2000/svg" viewBox="0 0 50.4 28.8"><defs><style>.cls-1{fill:none;}.cls-2{fill:#fff;}</style></defs><g id="Layer_2" data-name="Layer 2"><g id="Layer_1-2" data-name="Layer 1"><rect class="cls-1" width="50.4" height="28.8"/><path class="cls-2" d="M9,9.8A2,2,0,0,0,8.28,9a3.43,3.43,0,0,0-1.19-.44,9.57,9.57,0,0,0-1.62-.12H2.6A.71.71,0,0,0,1.94,9L0,17.35a.4.4,0,0,0,.42.52H1.8a.7.7,0,0,0,.66-.52l.47-2a.72.72,0,0,1,.66-.52H4a6.5,6.5,0,0,0,3.92-1A3.24,3.24,0,0,0,9.3,11,2.45,2.45,0,0,0,9,9.8Zm-3,2.75A2.89,2.89,0,0,1,4.34,13H4a.41.41,0,0,1-.42-.52L4,10.69a.71.71,0,0,1,.65-.52H5.1a2.12,2.12,0,0,1,1.19.27.89.89,0,0,1,.4.81A1.49,1.49,0,0,1,6.07,12.55Zm42.1-3.47-.09,0-.11,0-.14,0L47.75,9l0-.11V8.15h.46V8h-.46V7.58h-.23V8h-.15v.19h.15v.71l.11.35.31.11H48l.14,0v-.2Zm2.13-1L50,7.92l-.24,0-.25.17L49.34,8l-.23-.06-.23,0-.21.14V8h-.22V9.29h.22v-1l.19-.12.18,0,.16,0,.07.08,0,.13v.92h.23v-1l.19-.12.19,0,.14,0,.08.08,0,.13,0,.16V9.3h.22V8.43ZM15.65,11a5.19,5.19,0,0,0-2.45-.44,11.72,11.72,0,0,0-1.66.13l-.7.13a.81.81,0,0,0-.61.64l-.17.69c-.09.44.16.42.27.39a7.38,7.38,0,0,1,.82-.25,6.18,6.18,0,0,1,1.28-.17,3.34,3.34,0,0,1,1.25.18.62.62,0,0,1,.42.62l0,.2-.19.12c-.78,0-1.35.12-2,.22a6,6,0,0,0-1.74.48,2.66,2.66,0,0,0-1.18.93,2.53,2.53,0,0,0-.39,1.43,1.73,1.73,0,0,0,.55,1.31,2.14,2.14,0,0,0,1.45.49A3.73,3.73,0,0,0,11.4,18l.67-.23.56-.31.52-.34h0l-.06.22h0a.4.4,0,0,0,.37.51h1.3a.71.71,0,0,0,.59-.51l1-4.33.05-.36,0-.33A1.44,1.44,0,0,0,15.65,11Zm-2.21,4.87-.21.28-.54.28a1.85,1.85,0,0,1-.72.16,1.63,1.63,0,0,1-.78-.15l-.27-.52a1.09,1.09,0,0,1,.2-.67l.58-.39a4.72,4.72,0,0,1,.91-.21l1-.11.1.17ZM40.59,11a5.24,5.24,0,0,0-2.45-.44,10.23,10.23,0,0,0-1.66.13,5.51,5.51,0,0,0-.71.13.79.79,0,0,0-.6.63l-.17.69c-.1.44.15.42.27.39a8.45,8.45,0,0,1,.81-.24,5.73,5.73,0,0,1,1.29-.17,3.37,3.37,0,0,1,1.25.17.64.64,0,0,1,.41.63l0,.19-.2.12c-.78,0-1.35.12-2,.22a6.19,6.19,0,0,0-1.74.48,2.7,2.7,0,0,0-1.19.93,2.57,2.57,0,0,0-.39,1.43A1.69,1.69,0,0,0,34,17.61a2.11,2.11,0,0,0,1.45.5,4.57,4.57,0,0,0,.86-.08L37,17.8l.57-.31.51-.35h0l-.05.22h0a.41.41,0,0,0,.37.52H39.7a.71.71,0,0,0,.59-.51l1-4.33.05-.35,0-.34A1.44,1.44,0,0,0,40.59,11Zm-2.21,4.87-.22.28-.54.28a2,2,0,0,1-.71.16,1.58,1.58,0,0,1-.78-.15l-.27-.52a1.07,1.07,0,0,1,.19-.67,1.42,1.42,0,0,1,.59-.39,4.55,4.55,0,0,1,.91-.21l1-.11.09.17C38.64,14.81,38.46,15.54,38.38,15.88ZM34,9.83A2.16,2.16,0,0,0,33.21,9,3.48,3.48,0,0,0,32,8.58a9.36,9.36,0,0,0-1.61-.12H27.53a.71.71,0,0,0-.66.52l-1.93,8.4a.42.42,0,0,0,.42.53h1.37a.7.7,0,0,0,.66-.52l.47-2a.72.72,0,0,1,.66-.52h.39a6.5,6.5,0,0,0,3.92-1,3.24,3.24,0,0,0,1.4-2.73A2.66,2.66,0,0,0,34,9.83Zm-3,2.75a2.89,2.89,0,0,1-1.73.45h-.34a.41.41,0,0,1-.42-.52l.42-1.78a.67.67,0,0,1,.65-.52H30a2.25,2.25,0,0,1,1.19.27.9.9,0,0,1,.4.82A1.51,1.51,0,0,1,31,12.58ZM45.73,9.05a.4.4,0,0,0-.41-.52H44.09A.7.7,0,0,0,43.5,9l-.06.1-.07.28-1.72,7.81,0,.24h0a.39.39,0,0,0,.35.49l0,0h1.27a.72.72,0,0,0,.6-.42l.06-.1,1.84-8.33ZM25,10.67H23.34a1.21,1.21,0,0,0-.87.52L20.32,14.9h-.23l-.61-3.68a.77.77,0,0,0-.75-.54H17.5a.4.4,0,0,0-.41.52s.93,5.32,1.12,6.57c.09.69,0,.81,0,.81L17,20.7c-.18.29-.08.52.21.52h1.42a1.16,1.16,0,0,0,.87-.52L25,11.45S25.47,10.66,25,10.67Z"/></g></g></svg>
