<svg xmlns="http://www.w3.org/2000/svg" viewBox="0 0 32.45 28.8"><defs><style>.cls-1{fill:none;}.cls-2{fill:#fff;}</style></defs><g id="Layer_2" data-name="Layer 2"><g id="Layer_1-2" data-name="Layer 1"><rect class="cls-1" width="32.45" height="28.8"/><path class="cls-2" d="M7.41,21.76V14.29H8.62v.54a1.5,1.5,0,0,1,.74-.54,2.64,2.64,0,0,1,2.74.7,2.8,2.8,0,0,1,.82,2,2.83,2.83,0,0,1-.21,1.07,2.68,2.68,0,0,1-.58.91,2.73,2.73,0,0,1-.89.63,2.64,2.64,0,0,1-1.88.07,1.55,1.55,0,0,1-.76-.53v2.59H7.41m2.7-6.54A1.54,1.54,0,0,0,9,15.68,1.86,1.86,0,0,0,8.53,17,2,2,0,0,0,9,18.31a1.6,1.6,0,0,0,2.27,0A1.74,1.74,0,0,0,11.71,17a1.87,1.87,0,0,0-.47-1.33,1.52,1.52,0,0,0-1.13-.48m11.07,6.54h1.25l3.17-7.47H24.32l-1.53,3.84-1.66-3.84H19.86L22.2,19.4l-1,2.36m-3.23-2v-.57a1.55,1.55,0,0,1-.76.53,2.64,2.64,0,0,1-1.88-.07,2.73,2.73,0,0,1-.89-.63,2.53,2.53,0,0,1-.58-.91A2.87,2.87,0,0,1,13.63,17a2.83,2.83,0,0,1,.81-2,2.66,2.66,0,0,1,2.75-.7,1.5,1.5,0,0,1,.74.54v-.54h1.21v5.45H18m-2.64-4A1.87,1.87,0,0,0,14.84,17a1.74,1.74,0,0,0,.48,1.26,1.6,1.6,0,0,0,2.27,0A2,2,0,0,0,18,17a1.86,1.86,0,0,0-.44-1.29,1.54,1.54,0,0,0-1.14-.46,1.52,1.52,0,0,0-1.13.48m11.55-4.87h0L25.76,7.19H24.05v4.59h1.13L25.12,8h0l1.14,3.77h1.65V7.19H26.8l.06,3.64M6,7.61H6l.62,4.21H7.89L7,7.19H5L4.1,11.82H5.36L6,7.61m5.41,3.12h0L10.8,7.19H8.91l-.1,4.63H10l0-4.17h0l.78,4.17H12l.78-4.17h0l0,4.17H14l-.1-4.63H12l-.57,3.54m9.72.4a.41.41,0,0,1-.44-.34.47.47,0,0,1,0-.17V7.19H19.49v3.32a2.54,2.54,0,0,0,0,.31c.07.86.76,1.14,1.61,1.14s1.54-.28,1.62-1.14a2.82,2.82,0,0,0,0-.31V7.19H21.58v3.43a.91.91,0,0,1,0,.17.42.42,0,0,1-.45.34m-19-.62a.6.6,0,0,1,0,.35.4.4,0,0,1-.45.31.42.42,0,0,1-.47-.42V10.3H0v.36C0,11.69.81,12,1.68,12s1.53-.28,1.64-1.06a2.21,2.21,0,0,0,0-.76c-.2-1-2-1.26-2.09-1.8a.48.48,0,0,1,0-.24.38.38,0,0,1,.42-.32.4.4,0,0,1,.43.42v.29H3.24V8.21C3.24,7.2,2.33,7,1.67,7c-.82,0-1.49.27-1.62,1a1.85,1.85,0,0,0,0,.62c.21,1,1.85,1.22,2.09,1.82m15.08,0a.57.57,0,0,1,0,.34c0,.15-.14.3-.45.3a.4.4,0,0,1-.46-.41v-.45H15.1v.36c0,1,.8,1.33,1.67,1.33s1.51-.28,1.62-1.05a2.39,2.39,0,0,0,0-.76c-.19-1-1.93-1.24-2.06-1.78a.67.67,0,0,1,0-.24.38.38,0,0,1,.42-.31.39.39,0,0,1,.43.41v.29H18.3V8.22c0-1-.89-1.16-1.54-1.16-.82,0-1.49.27-1.61,1a1.62,1.62,0,0,0,0,.62c.2.94,1.83,1.21,2.07,1.81m13.56.57a.43.43,0,0,1-.47-.34.91.91,0,0,1,0-.17V8.45a.75.75,0,0,1,0-.22.42.42,0,0,1,.46-.34.42.42,0,0,1,.46.34.71.71,0,0,1,0,.17v.26h1.17V8.51a1.72,1.72,0,0,0,0-.3c-.08-.88-.8-1.15-1.62-1.15s-1.52.28-1.63,1.15a2.83,2.83,0,0,0,0,.3v2a2,2,0,0,0,0,.31c.08.84.81,1.14,1.63,1.14s1.55-.3,1.63-1.14c0-.16,0-.22,0-.31V9.22H30.8V9.9h.48v.67c0,.06,0,.12,0,.17a.43.43,0,0,1-.48.34"/></g></g></svg>
