<svg xmlns="http://www.w3.org/2000/svg" viewBox="0 0 60.59 28.8"><defs><style>.cls-1{fill:none;}.cls-2{fill:#fff;}</style></defs><g id="Layer_2" data-name="Layer 2"><g id="Layer_1-2" data-name="Layer 1"><rect class="cls-1" width="60.59" height="28.8"/><path class="cls-2" d="M10,8.64a4.11,4.11,0,0,1,.59,2.25c0,2.8-2.39,6.45-4.33,9H1.78L0,9.25l3.88-.36,1,7.57c.87-1.44,2-3.69,2-5.22a4.11,4.11,0,0,0-.37-1.88Z"/><path class="cls-2" d="M15,13.33c.72,0,2.52-.33,2.52-1.35a.7.7,0,0,0-.76-.74A2.19,2.19,0,0,0,15,13.33Zm-.08,2a1.51,1.51,0,0,0,1.62,1.74,6.75,6.75,0,0,0,3.21-.88l-.47,3.19a8.76,8.76,0,0,1-3.58.72c-3.38,0-4.58-2.05-4.58-4.6,0-3.32,2-6.84,6-6.84,2.23,0,3.48,1.25,3.48,3C20.6,14.47,17,15.33,14.91,15.35Z"/><path class="cls-2" d="M31.81,11.14a10.56,10.56,0,0,1-.13,1.39l-1.16,7.36H26.73l1.07-6.75c0-.18.08-.55.08-.76,0-.49-.31-.61-.68-.61a3.06,3.06,0,0,0-1.3.39l-1.21,7.73h-3.8l1.73-11h3.3l0,.89a5.6,5.6,0,0,1,3.25-1.07C31.13,8.68,31.81,9.66,31.81,11.14Z"/><path class="cls-2" d="M43,9.89a5.6,5.6,0,0,1,3.51-1.21c2,0,2.62,1,2.62,2.46a10.56,10.56,0,0,1-.12,1.39l-1.17,7.36H44.1L45.18,13c0-.19.07-.41.07-.55,0-.56-.31-.68-.68-.68a3,3,0,0,0-1.29.39l-1.2,7.73H38.29L39.38,13c0-.19.06-.41.06-.55,0-.56-.31-.68-.68-.68a3.16,3.16,0,0,0-1.31.39l-1.2,7.73H32.44l1.74-11h3.25l.11.92a5.13,5.13,0,0,1,3.14-1.11A2.53,2.53,0,0,1,43,9.89Z"/><path class="cls-2" d="M56.7,13.1c0-.9-.23-1.51-.9-1.51-1.49,0-1.8,2.64-1.8,4,0,1,.29,1.65,1,1.65C56.37,17.23,56.7,14.45,56.7,13.1Zm-6.54,2.31c0-3.48,1.84-6.73,6.07-6.73,3.19,0,4.36,1.88,4.36,4.48,0,3.44-1.82,7-6.16,7C51.22,20.16,50.16,18.05,50.16,15.41Z"/></g></g></svg>
