<svg xmlns="http://www.w3.org/2000/svg" viewBox="0 0 47.83 28.8"><defs><style>.cls-1{fill:none;}.cls-2{fill:#fff;}</style></defs><g id="Layer_2" data-name="Layer 2"><g id="Layer_1-2" data-name="Layer 1"><rect class="cls-1" width="47.83" height="28.8"/><path class="cls-2" d="M19.15,7.28,16.72,21.55h3.89L23,7.28Zm-5.69,0L9.65,17l-.4-1.47A15.36,15.36,0,0,0,3.86,9.64l3.48,11.9h4.12L17.58,7.3Zm-5.69,1A1.56,1.56,0,0,0,6.08,7.16h-6l0,.28c4.69,1.14,7.79,3.88,9.08,7.18ZM30.92,10a7.35,7.35,0,0,1,2.91.54l.35.17.53-3.09A10,10,0,0,0,31.22,7C27.38,7,24.68,9,24.65,11.75c0,2,1.93,3.19,3.41,3.87s2,1.15,2,1.77c0,1-1.2,1.39-2.32,1.39A8.18,8.18,0,0,1,24.09,18l-.5-.23L23,21a12.34,12.34,0,0,0,4.33.76c4.09,0,6.75-1.91,6.77-4.87,0-1.62-1-2.86-3.26-3.88-1.36-.66-2.19-1.1-2.19-1.77S29.4,10,30.92,10ZM44.68,7.3h-3a1.94,1.94,0,0,0-2,1.18L33.87,21.56H38l.82-2.15h5c.12.5.47,2.14.47,2.14h3.61Zm-4.79,9.19,1.55-4s.32-.83.52-1.37l.26,1.23s.74,3.41.9,4.12Z"/></g></g></svg>
